<?xml version="1.0" encoding="UTF-8" standalone="no"?>
<svg width="100px" height="21px" viewBox="0 0 100 21" version="1.1" xmlns="http://www.w3.org/2000/svg" xmlns:xlink="http://www.w3.org/1999/xlink">
    <!-- Generator: Sketch 40.3 (33839) - http://www.bohemiancoding.com/sketch -->
    <title>logo</title>
    <desc>Created with Sketch.</desc>
    <defs></defs>
    <g id="pc首页" stroke="none" stroke-width="1" fill="none" fill-rule="evenodd">
        <g transform="translate(-6.000000, -15.000000)" id="header-copy-2" fill="#FFFFFF">
            <g>
                <path d="M50.3726773,25.1899755 C50.3726773,21.458481 47.3171783,18.4393296 43.5587075,18.4393296 C39.7913448,18.4393296 36.7461971,21.458481 36.7461971,25.1899755 C36.7461971,28.9188131 39.7913448,31.9417986 43.5587075,31.9417986 C47.3171783,31.9417986 50.3726773,28.9188131 50.3726773,25.1899755 M43.5587075,28.995496 C41.4381512,28.995496 39.7191233,27.291758 39.7191233,25.1899755 C39.7191233,23.0892357 41.4381512,21.3858341 43.5587075,21.3858341 C45.6817754,21.3858341 47.3972397,23.0892357 47.3972397,25.1899755 C47.3972397,27.291758 45.6817754,28.995496 43.5587075,28.995496 Z M34.3978478,25.1899755 C34.3978478,21.458481 31.3480505,18.4393296 27.5878488,18.4393296 C23.8197394,18.4393296 20.7752705,21.458481 20.7752705,25.1899755 C20.7752705,28.9188131 23.8197394,31.9417986 27.5878488,31.9417986 C31.3480505,31.9417986 34.3978478,28.9188131 34.3978478,25.1899755 Z M27.5878488,28.995496 C25.4676318,28.995496 23.7468052,27.291758 23.7468052,25.1899755 C23.7468052,23.0892357 25.4676318,21.3858341 27.5878488,21.3858341 C29.7094572,21.3858341 31.4296051,23.0892357 31.4296051,25.1899755 C31.4296051,27.291758 29.7094572,28.995496 27.5878488,28.995496 Z M12.8856256,32.0528548 L12.8256152,32.0222517 C12.8004384,32.0222517 12.8004384,32.0528548 12.8004384,32.0528548 L12.8856256,32.0528548 Z M16.4022381,27.3932551 C16.1068698,27.4005534 15.9102291,27.5349838 15.7948037,27.6487637 L15.7911723,27.6414654 C15.090101,28.5154143 14.0188946,29.0741564 12.8053833,29.0800085 C10.6862863,29.0741564 8.9729262,27.3707884 8.9729262,25.2730419 C8.9729262,23.1707213 10.691988,21.4645281 12.817194,21.4645281 C14.025309,21.4645281 15.1033032,22.031443 15.8093973,22.9028695 L15.8140809,22.9028695 C15.9267233,23.0089474 16.121192,23.1427388 16.4240268,23.1558556 C17.0412016,23.1724702 17.9983062,22.7405575 18.405197,22.3374008 C18.6190106,22.1236979 18.7305331,21.8285698 18.3629773,21.368641 C17.1287634,19.6470103 15.1033032,18.521387 12.817194,18.521387 C9.05196938,18.521387 6,21.5442043 6,25.2730419 C6,28.9997942 9.04589436,32.0169949 12.8053833,32.0222416 C15.0936646,32.0222416 17.1094523,30.8944994 18.3379645,29.1774428 L18.3437001,29.1774428 C18.7148195,28.7205745 18.6043491,28.4268254 18.3858519,28.2119117 C17.9739722,27.807477 17.0168676,27.3707884 16.4022381,27.3932551 Z M53.5350967,15.4689223 L53.5350967,31.4489533 L53.5350967,31.4659715 C53.5350967,31.6434856 53.7510825,31.9340395 54.0095594,31.9340395 L56.1394829,31.9340395 C56.3996907,31.9340395 56.6121129,31.7122311 56.6121129,31.4659715 L56.6121129,31.4489533 L56.6121129,15.4689223 L56.6121129,15.4742363 C56.6121129,15.2892894 56.3996907,15.0000135 56.1394829,15.0000135 L54.0095594,15.0000135 C53.7510825,15.0000135 53.5350967,15.220712 53.5350967,15.4742363 L53.5350967,15.4689223 Z M106,15.5766684 L106,15.5539662 L106,15.4843463 L106,15.4689088 C106,15.2893096 105.782589,15 105.526997,15 L103.389946,15 C103.130349,15 102.914092,15.2173353 102.914092,15.4689088 L102.914092,15.502239 L102.914092,15.6140345 L102.914092,15.7401912 L102.914092,19.7077882 C101.820384,18.9575408 100.493891,18.5155382 99.0637152,18.5155382 C95.29995,18.5155382 92.2443831,21.5417188 92.2443831,25.2730452 C92.2443831,28.999764 95.29995,32.022245 99.0637152,32.022245 C100.728068,32.022245 102.345212,31.4713057 103.63556,30.5511116 C104.928794,29.6348862 106,27.7522216 106,26.2862341 L106,15.5766684 Z M99.120257,29.0780948 C97.0036036,29.0780948 95.2856279,27.3707918 95.2856279,25.2730452 C95.2856279,23.1707247 97.0036036,21.4632871 99.120257,21.4632871 C101.247601,21.4632871 102.968428,23.1707247 102.968428,25.2730452 C102.968428,27.3707918 101.247601,29.0780948 99.120257,29.0780948 Z M59.9311355,34.896829 L59.9311355,34.9174123 L59.9311355,34.9917745 L59.9311355,34.9988374 C59.9311355,35.1806228 60.146714,35.4715131 60.4102139,35.4715131 L62.5376258,35.4715131 C62.7982409,35.4715131 63.0116473,35.2560948 63.0116473,34.9988374 L63.0116473,34.9747563 L63.0116473,34.8624899 L63.0116473,34.734517 L63.0116473,30.7637585 C64.111464,31.5148804 65.4351063,31.9531497 66.8706105,31.9531497 C70.6351563,31.9531497 73.6810168,28.9278435 73.6810168,25.2018647 C73.6810168,21.4745743 70.6351563,18.4542121 66.8706105,18.4542121 C65.2041197,18.4542121 63.5879939,18.997954 62.291231,19.9225203 C61.0020026,20.8396538 59.9311355,22.723361 59.9311355,24.1836983 L59.9311355,34.896829 Z M66.8091136,21.3966806 C68.92855,21.3966806 70.6526348,23.1023693 70.6526348,25.2018647 C70.6526348,27.3071786 68.92855,29.0109166 66.8091136,29.0109166 C64.68927,29.0109166 62.9684094,27.3071786 62.9684094,25.2018647 C62.9684094,23.1023693 64.68927,21.3966806 66.8091136,21.3966806 Z M89.764871,24.1521641 L89.764871,24.1511215 L89.764871,19.05141 L89.764871,18.9832026 L89.764871,18.9676643 C89.764871,18.7897803 89.5485798,18.4988563 89.2868447,18.4988563 L87.3203699,18.4988563 C87.055818,18.4988563 86.8473666,18.7171334 86.8473666,18.9676643 L86.8473666,18.9885839 L86.8473666,19.6279102 C85.6571033,18.9307691 84.2584226,18.5155382 82.8200336,18.5155382 C79.0594586,18.5155382 76.0125122,21.5417188 76.0125122,25.2730452 C76.0125122,28.999764 79.0594586,32.022245 82.8200336,32.022245 C84.2502434,32.022245 85.8051438,31.5478204 86.8473666,30.7172914 L86.8473666,31.4691868 C86.8473666,31.7260071 87.055818,31.9417953 87.3203699,31.9417953 L89.2868447,31.9417953 C89.5485798,31.9417953 89.764871,31.6533602 89.764871,31.4691868 L89.764871,31.4589288 L89.764871,24.1521641 Z M82.8805123,29.0780948 C80.7670831,29.0780948 79.0430323,27.3707918 79.0430323,25.2730452 C79.0430323,23.1707247 80.7670831,21.4632871 82.8805123,21.4632871 C85.005345,21.4632871 86.7268843,23.1707247 86.7268843,25.2730452 C86.7268843,27.3707918 85.005345,29.0780948 82.8805123,29.0780948 Z" id="logo"></path>
            </g>
        </g>
    </g>
</svg>